<svg id="Layer_1" data-name="Layer 1" xmlns="http://www.w3.org/2000/svg" viewBox="0 0 364.92 115.72"><defs><style>.cls-1,.cls-3,.cls-6,.cls-8{fill:none;}.cls-1,.cls-2,.cls-3,.cls-8{stroke:#231f20;}.cls-1,.cls-2,.cls-3,.cls-6,.cls-8{stroke-miterlimit:10;}.cls-2{fill:#fff;}.cls-2,.cls-3{stroke-width:0.5px;}.cls-4,.cls-9{fill:#ed2390;}.cls-5{fill:#253b51;}.cls-6{stroke:#fff;}.cls-7{fill:#231f20;}.cls-8,.cls-9{fill-rule:evenodd;}</style></defs><line class="cls-1" x1="127.44" y1="19.29" x2="127.44" y2="72.99"/><line class="cls-1" x1="163.57" y1="19.32" x2="163.57" y2="73.02"/><line class="cls-1" x1="146.02" y1="19.56" x2="146.02" y2="73.26"/><line class="cls-1" x1="171.7" y1="28.33" x2="118.01" y2="28.33"/><line class="cls-1" x1="171.68" y1="64.46" x2="117.98" y2="64.46"/><line class="cls-1" x1="171.43" y1="46.91" x2="117.74" y2="46.91"/><polygon class="cls-2" points="64.74 11.51 38.41 11.51 38.41 58.43 73.32 58.43 73.32 20.08 64.74 11.51"/><polyline class="cls-3" points="64.74 11.51 64.74 20.08 73.32 20.08"/><rect class="cls-3" x="44.05" y="42.21" width="34.14" height="14.57"/><path class="cls-4" d="M53.73,34.25H48.18a9.71,9.71,0,0,1,.18-9.31l2.78,4.82h0Z"/><path class="cls-4" d="M51.36,29.38l-2.78-4.81a9.7,9.7,0,0,1,8.15-4.49L54,24.9Z"/><path class="cls-4" d="M59.13,34.63l-2.77,4.81a9.7,9.7,0,0,1-8-4.81Z"/><path class="cls-4" d="M62.16,30.14,64.94,35a9.69,9.69,0,0,1-8.16,4.5l2.79-4.82Z"/><path class="cls-4" d="M54.39,24.9l2.77-4.81a9.67,9.67,0,0,1,8,4.81Z"/><path class="cls-4" d="M66.44,29.76a9.69,9.69,0,0,1-1.28,4.82l-5.37-9.3h5.55A9.64,9.64,0,0,1,66.44,29.76Z"/><path class="cls-5" d="M39.54,31.79c-9.8,0-17.74,3.09-17.74,6.89V49.52h0V60.36h0V71.2h0c0,3.8,8,6.89,17.74,6.89S57.28,75,57.28,71.2V60.36h0V49.52h0V38.68C57.28,34.88,49.34,31.79,39.54,31.79Z"/><ellipse class="cls-6" cx="39.54" cy="38.68" rx="17.74" ry="6.88"/><path class="cls-6" d="M57.28,38.68V49.52c0,3.8-7.94,6.88-17.74,6.88S21.8,53.32,21.8,49.52V71.2c0,3.8,7.94,6.89,17.74,6.89S57.28,75,57.28,71.2h0V60.36c0,3.8-7.94,6.89-17.74,6.89S21.8,64.16,21.8,60.36V71.2"/><path class="cls-7" d="M23.49,92.11c0-1.37,0-2.68,0-3.38h0c-.28.94-1.7,4.39-2.59,6.6h-.53c-.67-1.71-2.14-5.55-2.46-6.61h0c.05.8.07,2.43.07,3.63v3h-.54v-7h.81c1,2.4,2.17,5.54,2.43,6.33h0c.16-.51,1.56-4,2.54-6.33H24v7h-.54Z"/><path class="cls-7" d="M25.9,92.89c0,1.29.66,2.09,1.62,2.09A1.41,1.41,0,0,0,29,94h.51a1.92,1.92,0,0,1-2,1.41c-1.52,0-2.11-1.31-2.11-2.58,0-1.43.71-2.66,2.17-2.66a2.07,2.07,0,0,1,2,2.27c0,.14,0,.28,0,.41Zm3.17-.44a1.58,1.58,0,0,0-1.53-1.77c-1,0-1.5.72-1.61,1.77Z"/><path class="cls-7" d="M30.81,91.62c0-.43,0-.9,0-1.29h.49c0,.17,0,.6,0,.89a1.56,1.56,0,0,1,1.5-1,1.42,1.42,0,0,1,1.45,1,1.7,1.7,0,0,1,1.63-1c.77,0,1.57.44,1.57,1.83v3.29H37V92.1c0-.67-.24-1.4-1.17-1.4s-1.41.78-1.41,1.75v2.88h-.49V92.11c0-.73-.22-1.41-1.14-1.41s-1.44.86-1.44,1.88v2.75h-.5Z"/><path class="cls-7" d="M43.15,92.82a2.35,2.35,0,0,1-2.26,2.63c-1.35,0-2.19-1.11-2.19-2.62a2.33,2.33,0,0,1,2.24-2.62C42.27,90.21,43.15,91.25,43.15,92.82Zm-3.92,0c0,1.19.64,2.15,1.7,2.15s1.69-.89,1.69-2.15-.6-2.15-1.71-2.15S39.23,91.63,39.23,92.83Z"/><path class="cls-7" d="M44.39,91.69c0-.84,0-1.2,0-1.36h.49c0,.16,0,.48,0,1.12a1.89,1.89,0,0,1,1.74-1.24v.54a1.81,1.81,0,0,0-1.74,2v2.6h-.5Z"/><path class="cls-7" d="M47.81,90.33c1,2.86,1.45,4,1.62,4.58h0c.2-.61.6-1.77,1.57-4.58h.52l-1.88,5.29c-.53,1.47-.89,1.8-1.79,1.8l-.46,0v-.5c.15,0,.29,0,.45,0,.72,0,.95-.36,1.32-1.38l-1.91-5.22Z"/><path class="cls-7" d="M59.36,91.89H55.79v2.94H59.7l-.08.5H55.25v-7h4.29v.5H55.79v2.56h3.57Z"/><path class="cls-7" d="M61.63,90.8v4.53h-.5V90.8h-.86v-.47h.86v-.69c0-.86.19-1.78,1.31-1.78a1.09,1.09,0,0,1,.45.07v.47a1.59,1.59,0,0,0-.48-.07c-.56,0-.78.37-.78,1.23v.77h2v-.69c0-.86.21-1.78,1.31-1.78a1.09,1.09,0,0,1,.45.07v.47a1.59,1.59,0,0,0-.48-.07c-.56,0-.78.37-.78,1.23v.77H65.2v.47H64.14v4.53h-.5V90.8Z"/><path class="cls-7" d="M66.15,88h.5v1h-.5Zm0,2.37h.5v5h-.5Z"/><path class="cls-7" d="M72,93.86A1.92,1.92,0,0,1,70,95.45c-1.25,0-2.14-.93-2.14-2.6,0-1.37.73-2.64,2.2-2.64A1.79,1.79,0,0,1,72,91.81h-.51a1.35,1.35,0,0,0-1.38-1.13c-1.06,0-1.66.9-1.66,2.15S69,95,70,95a1.41,1.41,0,0,0,1.43-1.12Z"/><path class="cls-7" d="M73.26,88h.5v1h-.5Zm0,2.37h.5v5h-.5Z"/><path class="cls-7" d="M75.51,92.89c0,1.29.66,2.09,1.62,2.09A1.41,1.41,0,0,0,78.57,94h.51a1.92,1.92,0,0,1-2,1.41c-1.52,0-2.11-1.31-2.11-2.58,0-1.43.71-2.66,2.17-2.66a2.07,2.07,0,0,1,2,2.27c0,.14,0,.28,0,.41Zm3.17-.44a1.58,1.58,0,0,0-1.53-1.77c-1,0-1.5.72-1.61,1.77Z"/><path class="cls-7" d="M80.42,91.59c0-.44,0-.86,0-1.26h.49c0,.16,0,.81,0,1a1.63,1.63,0,0,1,1.66-1.07c.89,0,1.68.5,1.68,1.88v3.24h-.5V92.17c0-.89-.37-1.47-1.24-1.47-1.19,0-1.6,1-1.6,2.08v2.55h-.5Z"/><path class="cls-7" d="M85.12,90.33h.93V88.77h.5v1.56h1.19v.47H86.55v3.25c0,.56.12.88.6.88a1.89,1.89,0,0,0,.52-.06v.44a1.76,1.76,0,0,1-.62.09c-.64,0-1-.32-1-1.12V90.8h-.93Z"/><path class="cls-7" d="M18,100.33v7h-.54v-7Z"/><path class="cls-7" d="M19.69,103.62c0-.43,0-.9,0-1.29h.49c0,.17,0,.6,0,.89a1.56,1.56,0,0,1,1.5-1,1.42,1.42,0,0,1,1.45,1,1.7,1.7,0,0,1,1.63-1c.77,0,1.57.44,1.57,1.83v3.29h-.5V104.1c0-.67-.24-1.4-1.17-1.4s-1.41.78-1.41,1.75v2.88h-.49v-3.22c0-.73-.22-1.41-1.14-1.41s-1.44.86-1.44,1.88v2.75h-.5Z"/><path class="cls-7" d="M31.35,106.38a5.72,5.72,0,0,0,.07,1h-.48a3.29,3.29,0,0,1-.09-.77,1.64,1.64,0,0,1-1.64.89,1.49,1.49,0,0,1-1.66-1.5c0-1.1.85-1.6,2.35-1.6h1v-.51c0-.5-.15-1.17-1.29-1.17s-1.16.53-1.27.94h-.5a1.55,1.55,0,0,1,1.78-1.4c1.14,0,1.78.48,1.78,1.58Zm-.49-1.6h-1c-1.11,0-1.8.29-1.8,1.15A1,1,0,0,0,29.23,107c1.43,0,1.63-.95,1.63-2Z"/><path class="cls-7" d="M36.82,107c0,1.6-.71,2.43-2.16,2.43a1.75,1.75,0,0,1-2-1.48h.51a1.39,1.39,0,0,0,1.47,1c1.3,0,1.66-.83,1.66-2.1v-.52a1.58,1.58,0,0,1-1.67,1c-1.17,0-2.07-1-2.07-2.5s1-2.62,2.14-2.62c1,0,1.46.48,1.6.88,0-.29,0-.64,0-.76h.47c0,.18,0,1,0,1.45Zm-3.69-2.18c0,1.19.63,2,1.59,2,1.25,0,1.63-.83,1.63-2.13s-.4-2-1.6-2S33.13,103.67,33.13,104.81Z"/><path class="cls-7" d="M38.57,104.89c0,1.29.66,2.09,1.62,2.09a1.41,1.41,0,0,0,1.44-.94h.51a1.92,1.92,0,0,1-2,1.41c-1.52,0-2.11-1.31-2.11-2.58,0-1.43.71-2.66,2.17-2.66a2.07,2.07,0,0,1,2,2.27c0,.14,0,.28,0,.41Zm3.17-.44a1.58,1.58,0,0,0-1.53-1.77c-1,0-1.5.72-1.61,1.77Z"/><path class="cls-7" d="M43.6,106A1.32,1.32,0,0,0,45,107c.89,0,1.25-.41,1.25-1s-.24-.85-1.36-1.12c-1.29-.31-1.61-.7-1.61-1.36s.52-1.33,1.65-1.33a1.59,1.59,0,0,1,1.75,1.4h-.5a1.18,1.18,0,0,0-1.27-.94c-.87,0-1.12.43-1.12.83s.24.69,1.23.93c1.41.34,1.76.8,1.76,1.55,0,.91-.74,1.47-1.79,1.47a1.74,1.74,0,0,1-1.92-1.5Z"/><line class="cls-1" x1="310.93" y1="63.75" x2="313.51" y2="53.64"/><line class="cls-1" x1="323.85" y1="61.4" x2="313.51" y2="53.64"/><line class="cls-1" x1="310.93" y1="63.75" x2="323.85" y2="61.4"/><line class="cls-1" x1="301.76" y1="68.68" x2="310.93" y2="63.75"/><line class="cls-1" x1="313.51" y1="53.64" x2="317.51" y2="45.42"/><line class="cls-1" x1="323.85" y1="61.4" x2="329.5" y2="42.83"/><line class="cls-1" x1="317.51" y1="45.42" x2="323.85" y2="61.4"/><line class="cls-1" x1="329.5" y1="42.83" x2="317.51" y2="45.42"/><line class="cls-1" x1="339.6" y1="65.16" x2="329.5" y2="42.83"/><line class="cls-1" x1="323.85" y1="61.4" x2="339.6" y2="65.16"/><line class="cls-1" x1="317.51" y1="45.42" x2="309.99" y2="23.32"/><line class="cls-1" x1="301.53" y1="35.78" x2="309.99" y2="23.32"/><line class="cls-1" x1="317.51" y1="45.42" x2="301.53" y2="35.78"/><path class="cls-4" d="M301.76,69.68a1,1,0,0,0,0-2,1,1,0,0,0,0,2Z"/><path class="cls-4" d="M310.93,64.75a1,1,0,0,0,0-2,1,1,0,0,0,0,2Z"/><path class="cls-4" d="M313.51,54.64a1,1,0,0,0,0-2,1,1,0,0,0,0,2Z"/><path class="cls-4" d="M317.51,46.42a1,1,0,0,0,0-2,1,1,0,0,0,0,2Z"/><path class="cls-4" d="M301.53,36.78a1,1,0,0,0,0-2,1,1,0,0,0,0,2Z"/><path class="cls-4" d="M310,24.32a1,1,0,0,0,0-2,1,1,0,0,0,0,2Z"/><path class="cls-4" d="M329.5,43.83a1,1,0,0,0,0-2,1,1,0,0,0,0,2Z"/><path class="cls-4" d="M323.85,62.4a1,1,0,0,0,0-2,1,1,0,0,0,0,2Z"/><path class="cls-4" d="M339.6,66.16a1,1,0,0,0,0-2,1,1,0,0,0,0,2Z"/><path class="cls-7" d="M304.34,95.45v-7h.8c1.09,1.68,3.64,5.59,4.08,6.35h0c-.06-1-.05-2-.05-3.18V88.45h.55v7H309c-1-1.62-3.63-5.69-4.13-6.46h0c0,.92,0,1.94,0,3.21v3.25Z"/><path class="cls-7" d="M311.65,93c0,1.29.66,2.09,1.62,2.09a1.41,1.41,0,0,0,1.44-.94h.51a1.92,1.92,0,0,1-2,1.41c-1.52,0-2.11-1.31-2.11-2.58,0-1.43.71-2.66,2.17-2.66a2.07,2.07,0,0,1,2,2.27c0,.14,0,.28,0,.41Zm3.17-.44a1.58,1.58,0,0,0-1.53-1.77c-1,0-1.5.72-1.61,1.77Z"/><path class="cls-7" d="M315.89,90.45h.93V88.89h.5v1.56h1.19v.47h-1.19v3.25c0,.56.12.88.6.88a1.89,1.89,0,0,0,.52-.06v.44a1.76,1.76,0,0,1-.62.09c-.64,0-1-.32-1-1.12V90.92h-.93Z"/><path class="cls-7" d="M319.66,90.45c.74,2.58,1.17,4.06,1.25,4.5h0c.08-.4.58-2,1.36-4.5h.54c.92,3.09,1.2,4,1.29,4.37h0c.14-.55.37-1.3,1.29-4.37h.53l-1.58,5h-.55c-.54-1.77-1.18-3.94-1.28-4.4h0c-.09.49-.66,2.28-1.31,4.4h-.6l-1.47-5Z"/><path class="cls-7" d="M331,92.94a2.34,2.34,0,0,1-2.25,2.63c-1.35,0-2.19-1.11-2.19-2.62a2.33,2.33,0,0,1,2.24-2.62C330.15,90.33,331,91.37,331,92.94Zm-3.91,0c0,1.19.64,2.15,1.7,2.15s1.69-.89,1.69-2.15-.6-2.15-1.71-2.15S327.11,91.75,327.11,93Z"/><path class="cls-7" d="M332.27,91.81c0-.84,0-1.2,0-1.36h.49c0,.16,0,.48,0,1.12a1.89,1.89,0,0,1,1.74-1.24v.54a1.81,1.81,0,0,0-1.74,2v2.6h-.5Z"/><path class="cls-7" d="M336,93c.46-.49,1.86-1.91,2.52-2.58h.64l-2,2,2.22,3h-.62l-2-2.69-.83.8v1.89h-.5V88.08h.5Z"/><path class="cls-7" d="M340.4,94.07a1.32,1.32,0,0,0,1.42,1c.89,0,1.25-.41,1.25-1s-.24-.85-1.36-1.12c-1.29-.31-1.61-.7-1.61-1.36s.52-1.33,1.65-1.33a1.59,1.59,0,0,1,1.75,1.4H343a1.18,1.18,0,0,0-1.27-.94c-.87,0-1.12.43-1.12.83s.24.69,1.23.93c1.41.34,1.75.8,1.75,1.55,0,.91-.73,1.47-1.78,1.47a1.74,1.74,0,0,1-1.92-1.5Z"/><path class="cls-8" d="M249.86,49.46c-.08.25-.33.7-.41.95a1.71,1.71,0,0,0,.53.91c.3.34.77.65,1.19,1s.88.7,1.35,1a12,12,0,0,0,5.09,2.3,7.09,7.09,0,0,0,2.71,0,4,4,0,0,0,1.09-.54,5.61,5.61,0,0,0,1-.84c1.45-1.79-2-3.39-4.06-4.27a20.47,20.47,0,0,0-3.74-1.38,7.13,7.13,0,0,0-2.79-.27,3,3,0,0,0-2,1"/><path class="cls-8" d="M255,41c-.94.3-1.56,1.31-2.23,2.54s-1.4,1.34-1,2.23a2.68,2.68,0,0,0,2,1.66c4.78,1.52,7.05-1.81,9.12-4.08.19-.09,0-.64-.3-.82a17.87,17.87,0,0,0-3.61-2,6.88,6.88,0,0,0-3,.05,3.21,3.21,0,0,1-1,.41"/><path class="cls-8" d="M246.83,45.66c-.83-1.43-4.47-4.43-6.18-5.26s-2.8,0-4.6.23-2,3.41-.46,4.5,1.65,2.1,2.71,2.61,2.73.17,4.44.09,5.1-.41,4.09-2.17"/><path class="cls-8" d="M247.33,59.49a1.26,1.26,0,0,1,.5,1.68c-.28.82-1.56,1.48-2.55,2-1.23.75-4,1.47-5.5.29-.53-.45-1.67-1.52-1.58-2,.18-.79,1.92-.9,2.52-1.4a3.9,3.9,0,0,1,2.76-1.18,8.72,8.72,0,0,1,2.21.25,7.71,7.71,0,0,1,1.64.39Z"/><path class="cls-9" d="M246.83,50.36c1,.61.8.72.89,1.14.18.61-.86,1.85-1.29,2.35a10.81,10.81,0,0,1-2.45,2c-1.75,1.07-3.6,2.92-6,1.22a7,7,0,0,1-1.06-1,3.22,3.22,0,0,1-.61-1c-.26-.57.18-1.31.44-1.83.62-1.21,2.46-2,4-2.56a10.77,10.77,0,0,1,1.66-.52c.61-.13,1.13-.33,1.66-.41a3.83,3.83,0,0,1,1.39,0c.36.15,1,.49,1.32.64Z"/><path class="cls-9" d="M233.36,36.54c-.86-.75-1.19-1.92-.77-2.34.8-.64,3.18-.84,4.41-.86a19.51,19.51,0,0,0,3.07-.05c1.15-.18,1.87-.47,2.73.27,1.29,1.11,2,3.54-.05,4.13-.77.21-2,.31-2.77.44-1,.25-2,.49-3,.66-2.08.33-2.49-1.28-3.58-2.25Z"/><path class="cls-8" d="M250.68,62.86h0c-3.41-.79,3.29-5.12,5.41-4.74s2,2.22,1.75,3.33c-.29,1.29-.35,2.7-.65,4A15.65,15.65,0,0,1,251,63.07Z"/><path class="cls-8" d="M223.94,51.19c.34.5-.1.67-.47,1.81s-1,2.67-1.42,4-.9,2.37-2,2.5a3.5,3.5,0,0,1-2.77-.15c-3-1.5-3.74-2.64-2.34-4.89a32.07,32.07,0,0,1,2.88-3.66c2.56-2.75,3.8-1.67,6,.25Z"/><path class="cls-8" d="M229.17,42.61c-1.37-2-7.47-2.64-7.24,0,.23,1.31-1.14,4-.19,5.19.69.84,2.7,1.89,3.68,2.57,1.52.9,9.28.55,10.67-.28,1.84-1.13-1.77-2.41-2.85-3.24a16.49,16.49,0,0,1-4.07-4.27"/><path class="cls-8" d="M230.49,61.31a12.62,12.62,0,0,1-3.81.43c-2-.26-2.06-1.47-2-2.59.31-1.46-.25-3.94,1-4.87a11.94,11.94,0,0,1,2.89-1.53c2.29-.42,4.58,2.81,5.21,3.84s-.23,3.69-3.33,4.72"/><path class="cls-8" d="M219.49,60.75a3.08,3.08,0,0,1,2.43.34,5.66,5.66,0,0,1,2.2,2.5c.77,1.12,1.17,3.29-.79,3.81a7.55,7.55,0,0,1-3.14.26c-1.06-.43-.83-1.65-1.41-2.26-.72-.78-1.31-1.47-1-2.33a3.28,3.28,0,0,1,.84-1.38c.23-.26.54-.77.9-.94Z"/><path class="cls-8" d="M233.18,63.67c-.85-.86-.46-.69-2.14-.52s-2.7-.09-3.34.61-.57.35-.68,2.36.66,3.25,2.14,3.25,5.65-2.73,4-5.7"/><path class="cls-9" d="M229,28c-1.1-.82-3.55-.36-4.8-.05-3.71.77-2.36,3.73-2.11,5.88a26.7,26.7,0,0,0,.54,3.49,3.15,3.15,0,0,0,3,2.1c3,.73,3.9-.85,4.25-1.88s.52-8.42-.86-9.54"/><path class="cls-8" d="M239.31,31.64c.21-.19.7-.5.91-.69a1.24,1.24,0,0,0,0-.91c-.1-.35-.37-.74-.55-1.16s-.45-.8-.71-1.18a8.05,8.05,0,0,0-3.49-3.15,6.89,6.89,0,0,0-2.51-.7,6,6,0,0,0-1.32.17,10,10,0,0,0-1.46.43c-2.38,1.12-.08,3.3,1.38,4.55a14.8,14.8,0,0,0,2.77,2.1,6.34,6.34,0,0,0,2.49.92,4.2,4.2,0,0,0,2.49-.38"/><path class="cls-8" d="M249.05,42.26c-1.4-.35-3.17-.71-3.94-1.33-1.54-1.23,2.14-5.26,2.77-6.18s.81-1.38,2.42-1.3a7.76,7.76,0,0,1,2.71.18c.66.24.15,1.2.14,1.86s-.19,4.64-1,5.36-1.84,1.74-3.11,1.41"/><path class="cls-8" d="M240.82,25.83c-1.19.38-1,.16-.71,1.26s-.1,1.71.87,2.24.48.42,3.24.84,4.44.14,4.42-.8-3.78-4.05-7.82-3.54"/><path class="cls-7" d="M215.32,93.57a1.8,1.8,0,0,0,2,1.48c1.28,0,1.77-.64,1.77-1.4s-.35-1.28-1.89-1.66-2.12-.85-2.12-1.86.67-1.78,2.17-1.78a2.05,2.05,0,0,1,2.28,1.79H219a1.56,1.56,0,0,0-1.75-1.29c-1,0-1.56.47-1.56,1.25s.46,1.07,1.75,1.39c2,.49,2.26,1.28,2.26,2.12,0,1-.75,1.92-2.37,1.92a2.24,2.24,0,0,1-2.52-2Z"/><path class="cls-7" d="M221.48,88.08v3.21a1.74,1.74,0,0,1,1.65-1c.71,0,1.69.36,1.69,1.94v3.18h-.5V92.37c0-1-.45-1.55-1.28-1.55-1,0-1.56.61-1.56,1.84v2.79H221V88.08Z"/><path class="cls-7" d="M229.83,94.5a5.82,5.82,0,0,0,.07,1h-.48a3.38,3.38,0,0,1-.09-.77,1.64,1.64,0,0,1-1.64.89,1.48,1.48,0,0,1-1.65-1.5c0-1.1.84-1.6,2.34-1.6h1V92c0-.5-.15-1.17-1.29-1.17s-1.16.53-1.27.94h-.5a1.57,1.57,0,0,1,1.78-1.4c1.14,0,1.78.48,1.78,1.58Zm-.49-1.6h-1c-1.11,0-1.8.29-1.8,1.15a1,1,0,0,0,1.15,1.06c1.43,0,1.63-1,1.63-2Z"/><path class="cls-7" d="M232,94.71v2.73h-.5V91.68c0-.41,0-.85,0-1.23H232c0,.19,0,.49,0,.9a1.84,1.84,0,0,1,1.76-1c1.18,0,2,1,2,2.49,0,1.8-1,2.75-2.17,2.75A1.64,1.64,0,0,1,232,94.71Zm3.23-1.87c0-1.16-.56-2-1.55-2-1.21,0-1.71.76-1.71,2.12s.39,2.17,1.64,2.17C234.63,95.1,235.21,94.22,235.21,92.84Z"/><path class="cls-7" d="M237.16,93c0,1.29.66,2.09,1.62,2.09a1.41,1.41,0,0,0,1.44-.94h.51a1.92,1.92,0,0,1-2,1.41c-1.52,0-2.11-1.31-2.11-2.58,0-1.43.71-2.66,2.17-2.66a2.07,2.07,0,0,1,2,2.27c0,.14,0,.28,0,.41Zm3.17-.44a1.58,1.58,0,0,0-1.53-1.77c-1,0-1.5.72-1.61,1.77Z"/><path class="cls-7" d="M244.83,88.45h2.32a3.16,3.16,0,0,1,3.25,3.44,3.25,3.25,0,0,1-3.26,3.56h-2.31Zm.54,6.5h1.69c1.85,0,2.76-1.3,2.76-3a2.68,2.68,0,0,0-2.76-3h-1.69Z"/><path class="cls-7" d="M255.21,94.5a5.82,5.82,0,0,0,.07,1h-.48a3.38,3.38,0,0,1-.09-.77,1.64,1.64,0,0,1-1.64.89,1.48,1.48,0,0,1-1.65-1.5c0-1.1.84-1.6,2.34-1.6h1V92c0-.5-.15-1.17-1.29-1.17s-1.16.53-1.27.94h-.5a1.56,1.56,0,0,1,1.78-1.4c1.14,0,1.78.48,1.78,1.58Zm-.49-1.6h-1c-1.11,0-1.8.29-1.8,1.15a1,1,0,0,0,1.15,1.06c1.43,0,1.63-1,1.63-2Z"/><path class="cls-7" d="M256.06,90.45H257V88.89h.5v1.56h1.19v.47h-1.19v3.25c0,.56.12.88.6.88a2.37,2.37,0,0,0,.52-.06v.44a2,2,0,0,1-.62.09c-.64,0-1-.32-1-1.12V90.92h-.93Z"/><path class="cls-7" d="M263.13,94.5a5.82,5.82,0,0,0,.07,1h-.48a3.38,3.38,0,0,1-.09-.77,1.64,1.64,0,0,1-1.64.89,1.48,1.48,0,0,1-1.65-1.5c0-1.1.84-1.6,2.34-1.6h.95V92c0-.5-.15-1.17-1.29-1.17s-1.16.53-1.27.94h-.5a1.55,1.55,0,0,1,1.78-1.4c1.14,0,1.78.48,1.78,1.58Zm-.49-1.6h-1c-1.11,0-1.8.29-1.8,1.15A1,1,0,0,0,261,95.11c1.43,0,1.63-1,1.63-2Z"/><circle class="cls-4" cx="301.53" cy="68.94" r="1.83"/><circle class="cls-4" cx="339.6" cy="65.16" r="1.83"/><circle class="cls-4" cx="323.85" cy="61.4" r="1.83"/><circle class="cls-4" cx="310.93" cy="63.75" r="1.83"/><circle class="cls-4" cx="313.75" cy="53.64" r="1.83"/><circle class="cls-4" cx="329.5" cy="42.83" r="1.83"/><circle class="cls-4" cx="317.51" cy="45.42" r="1.83"/><circle class="cls-4" cx="309.99" cy="23.32" r="1.83"/><circle class="cls-4" cx="301.53" cy="35.78" r="1.83"/><circle class="cls-4" cx="125.63" cy="66" r="1.83"/><circle class="cls-4" cx="163.7" cy="62.22" r="1.83"/><circle class="cls-4" cx="147.96" cy="58.46" r="1.83"/><circle class="cls-4" cx="135.03" cy="60.81" r="1.83"/><circle class="cls-4" cx="137.85" cy="50.71" r="1.83"/><circle class="cls-4" cx="153.6" cy="39.89" r="1.83"/><circle class="cls-4" cx="141.61" cy="42.48" r="1.83"/><circle class="cls-4" cx="134.09" cy="20.39" r="1.83"/><circle class="cls-4" cx="125.63" cy="32.84" r="1.83"/><path class="cls-7" d="M124.1,88.33h2.5a1.91,1.91,0,0,1,2.15,2,2,2,0,0,1-2.22,2h-1.88v3h-.55Zm.55,3.45h1.93c1.13,0,1.6-.6,1.6-1.48a1.4,1.4,0,0,0-1.56-1.47h-2Z"/><path class="cls-7" d="M133.85,92.82a2.35,2.35,0,0,1-2.26,2.63c-1.35,0-2.19-1.11-2.19-2.62a2.33,2.33,0,0,1,2.24-2.62C133,90.21,133.85,91.25,133.85,92.82Zm-3.92,0c0,1.19.64,2.15,1.7,2.15s1.69-.89,1.69-2.15-.6-2.15-1.71-2.15S129.93,91.63,129.93,92.83Z"/><path class="cls-7" d="M135.13,88h.5v1h-.5Zm0,2.37h.5v5h-.5Z"/><path class="cls-7" d="M137.27,91.59c0-.44,0-.86,0-1.26h.49c0,.16,0,.81,0,1a1.63,1.63,0,0,1,1.66-1.07c.89,0,1.68.5,1.68,1.88v3.24h-.5V92.17c0-.89-.37-1.47-1.24-1.47-1.19,0-1.6,1-1.6,2.08v2.55h-.5Z"/><path class="cls-7" d="M142,90.33h.93V88.77h.5v1.56h1.19v.47H143.4v3.25c0,.56.12.88.6.88a1.89,1.89,0,0,0,.52-.06v.44a1.76,1.76,0,0,1-.62.09c-.64,0-1-.32-1-1.12V90.8H142Z"/><path class="cls-7" d="M148.37,88.33h2.32a3.16,3.16,0,0,1,3.24,3.44,3.25,3.25,0,0,1-3.25,3.56h-2.31Zm.54,6.5h1.69c1.85,0,2.75-1.3,2.75-3a2.67,2.67,0,0,0-2.75-3h-1.69Z"/><path class="cls-7" d="M158.75,94.38a5.72,5.72,0,0,0,.07,1h-.48a3.29,3.29,0,0,1-.09-.77,1.64,1.64,0,0,1-1.64.89A1.49,1.49,0,0,1,155,94c0-1.1.85-1.6,2.35-1.6h.95v-.51c0-.5-.15-1.17-1.29-1.17s-1.16.53-1.27.94h-.5a1.55,1.55,0,0,1,1.78-1.4c1.14,0,1.78.48,1.78,1.58Zm-.49-1.6h-1c-1.11,0-1.8.29-1.8,1.15A1,1,0,0,0,156.63,95c1.43,0,1.63-.95,1.63-2Z"/><path class="cls-7" d="M159.6,90.33h.93V88.77h.5v1.56h1.19v.47H161v3.25c0,.56.12.88.6.88a1.89,1.89,0,0,0,.52-.06v.44a1.76,1.76,0,0,1-.62.09c-.64,0-1-.32-1-1.12V90.8h-.93Z"/><path class="cls-7" d="M166.67,94.38a5.72,5.72,0,0,0,.07,1h-.48a3.29,3.29,0,0,1-.09-.77,1.64,1.64,0,0,1-1.64.89,1.49,1.49,0,0,1-1.66-1.5c0-1.1.85-1.6,2.35-1.6h.95v-.51c0-.5-.15-1.17-1.29-1.17s-1.16.53-1.27.94h-.5a1.55,1.55,0,0,1,1.78-1.4c1.14,0,1.78.48,1.78,1.58Zm-.49-1.6h-1c-1.11,0-1.8.29-1.8,1.15A1,1,0,0,0,164.55,95c1.43,0,1.63-.95,1.63-2Z"/></svg>